# xmcd CD database file
#
# Track frame offsets:
#	150
#	10569
#	25061
#	38273
#	50324
#	62759
#	72952
#	86853
#	99161
#	112488
#	125894
#	138508
#	153553
#	167630
#	182810
#	194426
#
# Disc length: 2783 seconds
#
# Revision: 8
# Processed by: cddbd v1.5.2PL0 Copyright (c) Steve Scherf et al.
# Submitted via: CDex 1.51
#
DISCID=d90add10
DTITLE=John Lee Hooker - Blues Is The Healer  [CD 06-10]
DYEAR=2005
DGENRE=Blues
TTITLE0=Walkin' This Highway
TTITLE1=Four Women In My Life
TTITLE2=I Need Lovin'
TTITLE3=Find Me A Woman
TTITLE4=Mad Man Blues
TTITLE5=Hey Boogie
TTITLE6=Louise
TTITLE7=High Priced Woman
TTITLE8=Union Station Blues
TTITLE9=Ground Hog Blues
TTITLE10=Leave My Wife Alone
TTITLE11=Ramblin' By Myself
TTITLE12=Dreamin' Blues
TTITLE13=Just Me And My Telephone
TTITLE14=Walkin' The Boogie
TTITLE15=Sugar Mama
EXTD=10 CD Set YEAR: 2005
EXTT0=
EXTT1=
EXTT2=
EXTT3=
EXTT4=
EXTT5=
EXTT6=
EXTT7=
EXTT8=
EXTT9=
EXTT10=
EXTT11=
EXTT12=
EXTT13=
EXTT14=
EXTT15=
PLAYORDER=
